HIERARCHY
ROOT Hips
{
	OFFSET 0.000000 0.000000 0.000000
	CHANNELS 6 Xposition Yposition Zposition Zrotation Yrotation Xrotation 
	JOINT LeftUpLeg_virtual
	{
		OFFSET 0.000000 0.000000 0.000000
		CHANNELS 3 Zrotation Yrotation Xrotation
		JOINT LeftUpLeg
		{
			OFFSET 8.479694 -4.795517 -0.379053
			CHANNELS 3 Zrotation Yrotation Xrotation
			JOINT LeftLeg
			{
				OFFSET 0.485052 -32.551468 0.112863
				CHANNELS 3 Zrotation Yrotation Xrotation
				JOINT LeftFoot
				{
					OFFSET 0.438033 -32.635670 -3.012641
					CHANNELS 3 Zrotation Yrotation Xrotation
					JOINT LeftToeBase
					{
						OFFSET 0.970169 -13.225353 11.864223
						CHANNELS 3 Zrotation Yrotation Xrotation
						End Site
						{
							OFFSET 0.000000 0.000000 0.000000
						}
					}
				}
			}
		}
	}
	JOINT RightUpLeg_virtual
	{
		OFFSET 0.000000 0.000000 0.000000
		CHANNELS 3 Zrotation Yrotation Xrotation
		JOINT RightUpLeg
		{
			OFFSET -8.479694 -4.795517 -0.379053
			CHANNELS 3 Zrotation Yrotation Xrotation
			JOINT RightLeg
			{
				OFFSET -0.484100 -32.551483 0.112903
				CHANNELS 3 Zrotation Yrotation Xrotation
				JOINT RightFoot
				{
					OFFSET -0.438985 -32.635651 -3.012681
					CHANNELS 3 Zrotation Yrotation Xrotation
					JOINT RightToeBase
					{
						OFFSET -0.970169 -13.225354 11.864223
						CHANNELS 3 Zrotation Yrotation Xrotation
						End Site
						{
							OFFSET 0.000000 0.000000 0.000000
						}
					}
				}
			}
		}
	}
	JOINT Spine_virtual
	{
		OFFSET 0.000000 0.000000 0.000000
		CHANNELS 3 Zrotation Yrotation Xrotation
		JOINT Spine
		{
			OFFSET 0.000000 7.722015 1.166203
			CHANNELS 3 Zrotation Yrotation Xrotation
			JOINT Spine1
			{
				OFFSET 0.000000 12.024086 0.248766
				CHANNELS 3 Zrotation Yrotation Xrotation
				JOINT Spine2
				{
					OFFSET -0.000000 11.503036 -0.491240
					CHANNELS 3 Zrotation Yrotation Xrotation
					JOINT Neck_virtual
					{
						OFFSET 0.000000 0.000000 0.000000
						CHANNELS 3 Zrotation Yrotation Xrotation
						JOINT Neck
						{
							OFFSET 0.000000 18.430687 -3.123054
							CHANNELS 3 Zrotation Yrotation Xrotation
							JOINT Head
							{
								OFFSET -0.000000 9.051071 1.034021
								CHANNELS 3 Zrotation Yrotation Xrotation
								End Site
								{
									OFFSET 0.000000 0.000000 0.000000
								}
							}
						}
					}
					JOINT LeftShoulder_virtual
					{
						OFFSET 0.000000 0.000000 0.000000
						CHANNELS 3 Zrotation Yrotation Xrotation
						JOINT LeftShoulder
						{
							OFFSET 6.197824 13.665230 -4.064723
							CHANNELS 3 Zrotation Yrotation Xrotation
							JOINT LeftArm
							{
								OFFSET 7.778132 -0.187073 -1.709282
								CHANNELS 3 Zrotation Yrotation Xrotation
								JOINT LeftForeArm
								{
									OFFSET 21.954697 0.000000 -2.041093
									CHANNELS 3 Zrotation Yrotation Xrotation
									JOINT LeftHand
									{
										OFFSET 22.992908 0.000000 -0.870901
										CHANNELS 3 Zrotation Yrotation Xrotation
										End Site
										{
											OFFSET 0.000000 0.000000 0.000000
										}
									}
								}
							}
						}
					}
					JOINT RightShoulder_virtual
					{
						OFFSET 0.000000 0.000000 0.000000
						CHANNELS 3 Zrotation Yrotation Xrotation
						JOINT RightShoulder
						{
							OFFSET -6.197824 13.665230 -4.064723
							CHANNELS 3 Zrotation Yrotation Xrotation
							JOINT RightArm
							{
								OFFSET -7.778132 -0.187073 -1.709282
								CHANNELS 3 Zrotation Yrotation Xrotation
								JOINT RightForeArm
								{
									OFFSET -21.954697 0.000000 -2.041093
									CHANNELS 3 Zrotation Yrotation Xrotation
									JOINT RightHand
									{
										OFFSET -22.992908 0.000000 -0.870901
										CHANNELS 3 Zrotation Yrotation Xrotation
										End Site
										{
											OFFSET 0.000000 0.000000 0.000000
										}
									}
								}
							}
						}
					}
				}
			}
		}
	}
}
MOTION
Frames: 10
Frame Time: 0.033333
12.383380 80.631538 19.000725 179.938479 71.770412 179.827802 -3.330667 -2.842038 12.603273 11.091757 2.357001 -41.451657 2.387347 3.469206 34.766124 -3.386767 -5.038009 -0.551326 0.000000 0.000000 0.000000 2.625180 -5.195656 9.851849 -0.382233 -6.307781 -21.881568 -0.784523 3.110998 33.620937 4.802852 11.094415 -6.824759 0.000000 0.000000 0.000000 1.400125 -1.107880 7.526309 -5.234760 0.566030 9.380503 -1.181743 1.249058 8.481692 -0.005444 0.059130 -0.005723 -1.266538 2.355571 8.142766 -3.463130 7.609383 -9.650271 0.000000 0.000000 0.000000 -0.371409 2.791043 5.330391 1.341989 -14.883124 -1.619345 -46.832251 -36.988278 4.128152 -0.139987 -86.600733 23.909361 0.000000 0.000000 0.000000 -3.871964 4.475939 4.615003 17.452677 9.930286 3.174244 28.591624 34.279230 19.875267 2.537365 81.748068 4.494758 0.000000 0.000000 0.000000 
12.579194 80.700478 18.439487 179.732753 71.098246 179.692442 -3.750042 -2.494472 13.141156 11.214604 2.236155 -41.827706 2.348848 2.973835 34.458192 -2.973205 -4.891136 -0.382003 0.000000 0.000000 0.000000 2.020502 -4.740573 10.586914 -0.031860 -6.490127 -21.907685 -0.904265 2.949384 32.829304 4.907526 10.907500 -6.582252 0.000000 0.000000 0.000000 0.923061 -0.456956 8.534931 -5.393058 0.351032 9.891152 -1.044432 1.143403 8.458610 0.038611 -0.013077 -0.020439 -1.143406 2.194730 8.206562 -3.198224 7.380737 -10.350236 0.000000 0.000000 0.000000 -0.265273 2.772921 5.371741 1.600465 -15.948664 -1.739392 -45.738188 -38.620355 0.984101 2.645698 -83.774456 21.349990 0.000000 0.000000 0.000000 -3.810763 4.411985 4.645889 17.422762 9.582224 3.133440 29.377935 34.689066 20.793638 5.555698 83.271330 7.390012 0.000000 0.000000 0.000000 
12.866567 80.758850 17.697474 179.359292 70.315623 179.381135 -4.229809 -2.090971 13.838563 11.317631 1.955630 -42.412801 1.919718 2.038621 34.453482 -3.567845 -6.026988 -1.165035 0.000000 0.000000 0.000000 1.515762 -4.226583 11.526769 0.044568 -6.636205 -21.979235 -0.968026 2.938042 32.036497 5.117327 10.652103 -6.430240 0.000000 0.000000 0.000000 0.262719 -0.216811 9.733581 -5.703771 0.217632 10.312500 -0.947549 1.162376 8.422042 0.065419 0.032714 -0.030499 -0.991063 2.116270 8.290074 -2.872748 7.207367 -11.034321 0.000000 0.000000 0.000000 -0.094193 2.666433 5.366750 2.005273 -17.174681 -1.676688 -45.705150 -38.970085 0.779069 3.592207 -80.606587 20.517130 0.000000 0.000000 0.000000 -3.635862 4.300404 4.717612 17.409961 9.177520 3.199478 29.759206 36.230168 19.763859 8.589683 84.584701 10.218553 0.000000 0.000000 0.000000 
13.243031 80.796295 16.747044 179.324609 69.326249 179.409043 -4.804774 -1.546258 14.516290 11.120404 2.218069 -43.249827 1.709894 2.048105 34.983266 -3.374154 -6.541554 -2.090608 0.000000 0.000000 0.000000 1.043184 -3.757379 12.506514 0.212084 -6.880621 -21.975335 -1.119314 3.207375 31.249946 5.277781 10.227919 -6.386905 0.000000 0.000000 0.000000 -0.281820 0.097607 11.057751 -5.944063 0.048613 10.633942 -0.835647 1.130863 8.404003 0.050892 -0.000625 -0.021665 -0.891993 2.060461 8.368333 -2.586186 7.122987 -11.729410 0.000000 0.000000 0.000000 0.032379 2.583676 5.441323 2.483900 -18.426672 -1.605576 -46.486954 -38.111209 2.507255 2.865789 -78.183215 21.194374 0.000000 0.000000 0.000000 -3.528533 4.229330 4.796336 17.253575 8.799056 3.196175 29.776503 38.235030 17.290568 9.834521 85.028465 11.252691 0.000000 0.000000 0.000000 
13.661926 80.826859 15.639793 179.543339 68.327601 179.616299 -5.381687 -1.097292 15.264868 10.892805 2.526747 -44.170133 1.441552 2.468027 35.890329 -3.134405 -7.072883 -2.971824 0.000000 0.000000 0.000000 0.633173 -3.436202 13.508676 0.281433 -6.711358 -21.768341 -1.290918 3.378978 30.269401 5.426467 9.722557 -6.362955 0.000000 0.000000 0.000000 -0.770424 0.180853 12.432302 -6.110152 0.005935 10.906675 -0.737855 1.164296 8.388413 0.040989 -0.035444 -0.001987 -0.839959 2.078527 8.459100 -2.237584 6.846107 -12.347534 0.000000 0.000000 0.000000 0.055412 2.739015 5.588308 2.949373 -19.510773 -1.460120 -47.721948 -36.194040 4.700903 1.109722 -77.482007 22.562283 0.000000 0.000000 0.000000 -3.446838 4.254684 4.870260 17.161422 8.565688 3.390680 29.224129 40.431339 13.933287 7.114700 84.480117 8.340683 0.000000 0.000000 0.000000 
14.101253 80.866585 14.458919 179.888864 67.625901 179.992109 -5.785009 -0.674259 15.902260 10.682743 3.021470 -45.106644 1.108658 3.247534 37.113288 -2.686422 -7.353157 -3.745037 0.000000 0.000000 0.000000 0.243235 -3.169996 14.485487 0.254492 -6.072072 -21.431522 -1.560005 3.659171 29.089140 5.545553 9.117314 -6.181485 0.000000 0.000000 0.000000 -1.263653 0.106172 13.780318 -6.216887 0.207571 11.095358 -0.704735 1.344056 8.356109 -0.009241 -0.008099 0.003972 -0.851527 2.342691 8.590751 -1.912013 6.458570 -12.855396 0.000000 0.000000 0.000000 0.078436 2.871027 5.694413 3.195690 -20.093882 -1.370393 -49.057239 -33.915916 5.558397 -1.018393 -78.319136 23.939374 0.000000 0.000000 0.000000 -3.429603 4.449542 4.971749 17.009130 8.450674 3.490306 28.425745 42.381266 10.245930 3.711935 82.646218 4.832820 0.000000 0.000000 0.000000 
14.497304 80.937302 13.320376 179.871147 66.666239 179.957234 -6.414510 -1.146043 16.636502 10.346363 3.990900 -45.924402 0.870420 3.714935 38.429069 -2.497419 -7.793732 -4.446288 0.000000 0.000000 0.000000 -0.166085 -3.313360 15.429643 0.202710 -5.643977 -20.929402 -1.734078 3.883684 27.586796 5.782370 8.694179 -5.798430 0.000000 0.000000 0.000000 -1.707604 -0.347503 15.142557 -6.269637 0.558490 11.398405 -0.720276 1.522760 8.326935 0.006513 -0.053411 0.007786 -0.973412 2.466908 8.687400 -1.525468 5.868796 -13.249834 0.000000 0.000000 0.000000 -0.056830 3.048926 5.690893 3.134488 -20.289302 -1.286044 -50.603591 -32.028178 4.036324 -3.310019 -80.140665 25.135347 0.000000 0.000000 0.000000 -3.479610 4.648315 5.031417 16.864253 8.471944 3.717257 27.639184 44.012971 6.936264 0.841406 79.652915 1.938470 0.000000 0.000000 0.000000 
14.811040 81.031281 12.310402 -179.972384 66.085967 -179.920747 -6.921504 -1.612302 17.501439 9.953340 5.067729 -46.883774 0.677502 3.954934 39.665996 -2.353927 -8.111063 -4.814492 0.000000 0.000000 0.000000 -0.490182 -3.298166 16.228936 0.081314 -5.618603 -20.351956 -1.876260 4.108493 26.064345 6.070807 8.462247 -5.285925 0.000000 0.000000 0.000000 -2.065994 -0.886649 16.400375 -6.323043 0.900703 11.752584 -0.820908 1.778934 8.259127 -0.004444 -0.021487 0.006192 -1.117357 2.742826 8.692556 -1.128847 5.233072 -13.614217 0.000000 0.000000 0.000000 -0.242018 3.500392 5.614591 2.671603 -20.039502 -1.234556 -52.485229 -31.036974 0.624445 -4.143328 -81.572888 24.675863 0.000000 0.000000 0.000000 -3.612746 5.056843 5.042830 16.532282 8.700646 3.903371 27.269149 45.385675 4.198309 -1.163506 75.726430 -0.038149 0.000000 0.000000 0.000000 
15.062853 81.130043 11.489402 -179.947604 65.546006 -179.824483 -7.364859 -2.235482 18.408367 9.673037 5.821655 -47.951012 0.594247 4.165828 40.467150 -2.172004 -8.166882 -4.753207 0.000000 0.000000 0.000000 -0.766439 -4.065081 16.981860 -0.220536 -5.338328 -19.857120 -1.903496 4.521546 24.098664 6.441268 8.549626 -4.590336 0.000000 0.000000 0.000000 -2.328789 -1.405428 17.590367 -6.329404 1.338607 12.161173 -0.978032 2.141371 8.150264 0.042075 0.014348 0.020612 -1.288234 2.999723 8.635897 -0.631350 4.283434 -13.923482 0.000000 0.000000 0.000000 -0.461032 3.797511 5.537587 2.078380 -19.859900 -1.405605 -54.830918 -31.134389 -3.814314 -1.963020 -81.463277 21.161296 0.000000 0.000000 0.000000 -3.807880 5.361256 4.907785 16.286607 8.856871 4.154236 27.269563 46.622390 2.104019 -2.497582 71.195802 -1.310314 0.000000 0.000000 0.000000 
15.233148 81.200615 10.890469 179.914723 65.070058 -179.873141 -7.850836 -2.721412 19.337560 9.468764 6.151025 -48.984884 0.527071 4.144314 41.191327 -1.971765 -7.955253 -4.451315 0.000000 0.000000 0.000000 -0.975642 -5.781379 17.366029 -0.313568 -6.124668 -19.734462 -1.595280 4.738264 23.508581 6.969346 9.170618 -4.527370 0.000000 0.000000 0.000000 -2.639734 -2.117242 18.766875 -6.368986 1.878693 12.577010 -1.153204 2.370224 7.980872 0.013328 0.010350 0.003447 -1.417861 3.386874 8.494084 -0.201920 3.620984 -14.386655 0.000000 0.000000 0.000000 -0.727838 4.057823 5.334604 1.526800 -19.735990 -1.680617 -57.120435 -32.186242 -8.064628 1.870871 -78.768979 16.093346 0.000000 0.000000 0.000000 -4.033184 5.711745 4.771367 15.859289 9.204199 4.385365 28.170840 47.990005 1.051511 -3.474557 66.487807 -2.239800 0.000000 0.000000 0.000000 
